<svg xmlns="http://www.w3.org/2000/svg" xmlns:xlink="http://www.w3.org/1999/xlink" width="1080" zoomAndPan="magnify" viewBox="0 0 810 1439.999935" height="1920" preserveAspectRatio="xMidYMid meet" version="1.0"><defs><filter x="0%" y="0%" width="100%" height="100%" id="b99a270b9d"><feColorMatrix values="0 0 0 0 1 0 0 0 0 1 0 0 0 0 1 0 0 0 1 0" color-interpolation-filters="sRGB"/></filter><g/><clipPath id="88bbb3fec0"><path d="M 81 563.160156 L 332.25 563.160156 L 332.25 814.410156 L 81 814.410156 Z M 81 563.160156 " clip-rule="nonzero"/></clipPath><mask id="f9e297719f"><g filter="url(#b99a270b9d)"><rect x="-81" width="972" fill="#000000" y="-143.999994" height="1727.999922" fill-opacity="0.79"/></g></mask><clipPath id="1f5cae0200"><path d="M 34.789062 35.074219 L 439 35.074219 L 439 156.574219 L 34.789062 156.574219 Z M 34.789062 35.074219 " clip-rule="nonzero"/></clipPath><clipPath id="39965ba478"><path d="M 73.039062 35.074219 L 400.65625 35.074219 C 410.800781 35.074219 420.53125 39.105469 427.703125 46.277344 C 434.875 53.453125 438.90625 63.179688 438.90625 73.324219 L 438.90625 118.324219 C 438.90625 128.46875 434.875 138.199219 427.703125 145.371094 C 420.53125 152.546875 410.800781 156.574219 400.65625 156.574219 L 73.039062 156.574219 C 62.894531 156.574219 53.167969 152.546875 45.992188 145.371094 C 38.820312 138.199219 34.789062 128.46875 34.789062 118.324219 L 34.789062 73.324219 C 34.789062 63.179688 38.820312 53.453125 45.992188 46.277344 C 53.167969 39.105469 62.894531 35.074219 73.039062 35.074219 Z M 73.039062 35.074219 " clip-rule="nonzero"/></clipPath><clipPath id="9996c7d68e"><path d="M 34.789062 35.074219 L 439 35.074219 L 439 156.574219 L 34.789062 156.574219 Z M 34.789062 35.074219 " clip-rule="nonzero"/></clipPath><clipPath id="6a3a53aea7"><path d="M 73.039062 35.074219 L 400.648438 35.074219 C 410.792969 35.074219 420.523438 39.105469 427.695312 46.277344 C 434.871094 53.453125 438.898438 63.179688 438.898438 73.324219 L 438.898438 118.324219 C 438.898438 128.46875 434.871094 138.199219 427.695312 145.371094 C 420.523438 152.542969 410.792969 156.574219 400.648438 156.574219 L 73.039062 156.574219 C 62.894531 156.574219 53.164062 152.542969 45.992188 145.371094 C 38.820312 138.199219 34.789062 128.46875 34.789062 118.324219 L 34.789062 73.324219 C 34.789062 63.179688 38.820312 53.453125 45.992188 46.277344 C 53.164062 39.105469 62.894531 35.074219 73.039062 35.074219 Z M 73.039062 35.074219 " clip-rule="nonzero"/></clipPath><clipPath id="28f38a0ae4"><rect x="0" width="476" y="0" height="191"/></clipPath></defs><path fill="#004aad" d="M 209.269531 620.824219 C 172.605469 620.824219 142.796875 650.632812 142.796875 687.296875 C 142.796875 700.136719 146.496094 712.539062 153.351562 723.308594 L 154.980469 725.8125 L 148.5625 748.878906 L 172.933594 743.109375 L 175.21875 744.527344 C 185.445312 750.617188 197.304688 753.882812 209.269531 753.882812 C 245.9375 753.882812 275.746094 724.070312 275.746094 687.40625 C 275.746094 650.742188 245.9375 620.824219 209.269531 620.824219 Z M 247.132812 715.910156 C 246.480469 719.175781 239.515625 723.308594 235.054688 724.507812 C 223.957031 727.445312 208.292969 718.957031 192.84375 705.46875 C 177.285156 691.976562 166.839844 677.617188 168.144531 666.191406 C 168.691406 661.621094 171.953125 654.117188 175 653.136719 C 178.046875 652.15625 180.222656 653.136719 183.378906 654.117188 C 184.902344 655.855469 186.859375 657.921875 189.035156 660.425781 C 191.972656 663.691406 193.929688 666.628906 195.128906 668.695312 C 196.105469 670.433594 195.78125 672.609375 194.257812 673.917969 L 188.925781 678.703125 C 187.945312 679.574219 187.621094 680.988281 188.164062 682.183594 C 189.796875 685.667969 193.605469 692.847656 199.371094 697.851562 C 205.027344 702.855469 212.753906 705.683594 216.453125 706.773438 C 217.648438 707.207031 219.0625 706.664062 219.714844 705.578125 L 223.742188 699.703125 C 224.828125 698.070312 227.003906 697.417969 228.855469 698.179688 C 231.03125 699.15625 234.292969 700.679688 237.886719 703.074219 C 240.605469 704.921875 243 706.554688 244.847656 707.859375 C 246.480469 710.796875 247.785156 712.867188 247.132812 715.910156 Z M 247.132812 715.910156 " fill-opacity="1" fill-rule="nonzero"/><g clip-path="url(#88bbb3fec0)"><path fill="#004aad" d="M 206.660156 563.160156 C 137.246094 563.160156 81 619.410156 81 688.820312 C 81 758.234375 137.246094 814.480469 206.660156 814.480469 C 276.074219 814.480469 332.320312 758.234375 332.320312 688.820312 C 332.210938 619.410156 275.964844 563.160156 206.660156 563.160156 Z M 209.269531 766.828125 C 195.78125 766.828125 182.617188 763.457031 170.867188 756.929688 L 130.066406 766.609375 L 140.839844 727.769531 C 133.546875 715.476562 129.742188 701.550781 129.742188 687.191406 C 129.742188 643.34375 165.425781 607.660156 209.269531 607.660156 C 253.117188 607.660156 288.800781 643.453125 288.800781 687.296875 C 288.800781 731.144531 253.117188 766.828125 209.269531 766.828125 Z M 209.269531 766.828125 " fill-opacity="1" fill-rule="nonzero"/></g><g mask="url(#f9e297719f)"><g transform="matrix(1, 0, 0, 1, 316, 593)"><g clip-path="url(#28f38a0ae4)"><g clip-path="url(#1f5cae0200)"><g clip-path="url(#39965ba478)"><path fill="#f6f4ed" d="M 34.789062 35.074219 L 438.683594 35.074219 L 438.683594 156.574219 L 34.789062 156.574219 Z M 34.789062 35.074219 " fill-opacity="1" fill-rule="nonzero"/></g></g><g clip-path="url(#9996c7d68e)"><g clip-path="url(#6a3a53aea7)"><path stroke-linecap="butt" transform="matrix(0.75, 0, 0, 0.75, 34.789724, 35.076058)" fill="none" stroke-linejoin="miter" d="M 50.999122 -0.00245281 L 487.81166 -0.00245281 C 501.337703 -0.00245281 514.311663 5.372548 523.874163 14.935048 C 533.441873 24.502758 538.811665 37.471509 538.811665 50.997552 L 538.811665 110.997557 C 538.811665 124.5236 533.441873 137.497559 523.874163 147.06006 C 514.311663 156.622561 501.337703 161.997561 487.81166 161.997561 L 50.999122 161.997561 C 37.473079 161.997561 24.49912 156.622561 14.936619 147.06006 C 5.374118 137.497559 -0.000882094 124.5236 -0.000882094 110.997557 L -0.000882094 50.997552 C -0.000882094 37.471509 5.374118 24.502758 14.936619 14.935048 C 24.49912 5.372548 37.473079 -0.00245281 50.999122 -0.00245281 Z M 50.999122 -0.00245281 " stroke="#004aad" stroke-width="22" stroke-opacity="1" stroke-miterlimit="4"/></g></g></g></g></g><g fill="#737373" fill-opacity="1"><g transform="translate(409.55925, 708.699878)"><g><path d="M 23.609375 0 L 10.8125 -25.109375 L 10.8125 0 L 3.8125 0 L 3.8125 -35.140625 L 13.109375 -35.140625 L 25.015625 -11.453125 L 25.015625 -35.140625 L 32.046875 -35.140625 L 32.046875 0 Z M 23.609375 0 "/></g></g></g><g fill="#737373" fill-opacity="1"><g transform="translate(445.382733, 708.699878)"><g><path d="M 9.09375 -11.609375 C 9.207031 -9.234375 9.78125 -7.53125 10.8125 -6.5 C 11.84375 -5.46875 13.46875 -4.953125 15.6875 -4.953125 C 16.976562 -4.953125 18.109375 -5.113281 19.078125 -5.4375 C 20.054688 -5.757812 20.910156 -6.375 21.640625 -7.28125 L 26.515625 -3.8125 C 25.441406 -2.269531 24.054688 -1.117188 22.359375 -0.359375 C 20.660156 0.398438 18.335938 0.78125 15.390625 0.78125 C 11.003906 0.78125 7.734375 -0.367188 5.578125 -2.671875 C 3.421875 -4.972656 2.34375 -8.453125 2.34375 -13.109375 C 2.34375 -22.628906 6.609375 -27.390625 15.140625 -27.390625 C 18.929688 -27.390625 21.816406 -26.316406 23.796875 -24.171875 C 25.785156 -22.035156 26.78125 -18.921875 26.78125 -14.828125 L 26.78125 -11.609375 Z M 20.28125 -16.125 C 20.28125 -20.164062 18.515625 -22.1875 14.984375 -22.1875 C 13.816406 -22.1875 12.859375 -21.988281 12.109375 -21.59375 C 11.367188 -21.195312 10.773438 -20.601562 10.328125 -19.8125 C 9.878906 -19.03125 9.523438 -17.800781 9.265625 -16.125 Z M 20.28125 -16.125 "/></g></g></g><g fill="#737373" fill-opacity="1"><g transform="translate(474.40204, 708.699878)"><g><path d="M 9.09375 -11.609375 C 9.207031 -9.234375 9.78125 -7.53125 10.8125 -6.5 C 11.84375 -5.46875 13.46875 -4.953125 15.6875 -4.953125 C 16.976562 -4.953125 18.109375 -5.113281 19.078125 -5.4375 C 20.054688 -5.757812 20.910156 -6.375 21.640625 -7.28125 L 26.515625 -3.8125 C 25.441406 -2.269531 24.054688 -1.117188 22.359375 -0.359375 C 20.660156 0.398438 18.335938 0.78125 15.390625 0.78125 C 11.003906 0.78125 7.734375 -0.367188 5.578125 -2.671875 C 3.421875 -4.972656 2.34375 -8.453125 2.34375 -13.109375 C 2.34375 -22.628906 6.609375 -27.390625 15.140625 -27.390625 C 18.929688 -27.390625 21.816406 -26.316406 23.796875 -24.171875 C 25.785156 -22.035156 26.78125 -18.921875 26.78125 -14.828125 L 26.78125 -11.609375 Z M 20.28125 -16.125 C 20.28125 -20.164062 18.515625 -22.1875 14.984375 -22.1875 C 13.816406 -22.1875 12.859375 -21.988281 12.109375 -21.59375 C 11.367188 -21.195312 10.773438 -20.601562 10.328125 -19.8125 C 9.878906 -19.03125 9.523438 -17.800781 9.265625 -16.125 Z M 20.28125 -16.125 "/></g></g></g><g fill="#737373" fill-opacity="1"><g transform="translate(503.421347, 708.699878)"><g><path d="M 21.171875 0 L 21.171875 -2.59375 C 19.953125 -1.5625 18.664062 -0.738281 17.3125 -0.125 C 15.957031 0.476562 14.421875 0.78125 12.703125 0.78125 C 9.347656 0.78125 6.78125 -0.425781 5 -2.84375 C 3.226562 -5.257812 2.34375 -8.679688 2.34375 -13.109375 C 2.34375 -17.617188 3.316406 -21.125 5.265625 -23.625 C 7.222656 -26.132812 9.972656 -27.390625 13.515625 -27.390625 C 14.765625 -27.390625 16.046875 -27.128906 17.359375 -26.609375 C 18.679688 -26.097656 19.773438 -25.445312 20.640625 -24.65625 L 20.640625 -37.8125 L 27.1875 -37.8125 L 27.1875 0 Z M 20.640625 -19.25 C 19.953125 -19.875 19.09375 -20.425781 18.0625 -20.90625 C 17.039062 -21.394531 16 -21.640625 14.9375 -21.640625 C 13.175781 -21.640625 11.757812 -20.878906 10.6875 -19.359375 C 9.625 -17.847656 9.09375 -15.796875 9.09375 -13.203125 C 9.09375 -10.648438 9.523438 -8.644531 10.390625 -7.1875 C 11.265625 -5.726562 12.617188 -5 14.453125 -5 C 15.535156 -5 16.640625 -5.25 17.765625 -5.75 C 18.890625 -6.25 19.847656 -6.863281 20.640625 -7.59375 Z M 20.640625 -19.25 "/></g></g></g><g fill="#737373" fill-opacity="1"><g transform="translate(534.319419, 708.699878)"><g/></g></g><g fill="#737373" fill-opacity="1"><g transform="translate(546.810667, 708.699878)"><g><path d="M 24.8125 0 L 24.8125 -14.9375 L 10.96875 -14.9375 L 10.96875 0 L 3.8125 0 L 3.8125 -35.140625 L 10.96875 -35.140625 L 10.96875 -21.484375 L 24.8125 -21.484375 L 24.8125 -35.140625 L 32 -35.140625 L 32 0 Z M 24.8125 0 "/></g></g></g><g fill="#737373" fill-opacity="1"><g transform="translate(582.583373, 708.699878)"><g><path d="M 9.09375 -11.609375 C 9.207031 -9.234375 9.78125 -7.53125 10.8125 -6.5 C 11.84375 -5.46875 13.46875 -4.953125 15.6875 -4.953125 C 16.976562 -4.953125 18.109375 -5.113281 19.078125 -5.4375 C 20.054688 -5.757812 20.910156 -6.375 21.640625 -7.28125 L 26.515625 -3.8125 C 25.441406 -2.269531 24.054688 -1.117188 22.359375 -0.359375 C 20.660156 0.398438 18.335938 0.78125 15.390625 0.78125 C 11.003906 0.78125 7.734375 -0.367188 5.578125 -2.671875 C 3.421875 -4.972656 2.34375 -8.453125 2.34375 -13.109375 C 2.34375 -22.628906 6.609375 -27.390625 15.140625 -27.390625 C 18.929688 -27.390625 21.816406 -26.316406 23.796875 -24.171875 C 25.785156 -22.035156 26.78125 -18.921875 26.78125 -14.828125 L 26.78125 -11.609375 Z M 20.28125 -16.125 C 20.28125 -20.164062 18.515625 -22.1875 14.984375 -22.1875 C 13.816406 -22.1875 12.859375 -21.988281 12.109375 -21.59375 C 11.367188 -21.195312 10.773438 -20.601562 10.328125 -19.8125 C 9.878906 -19.03125 9.523438 -17.800781 9.265625 -16.125 Z M 20.28125 -16.125 "/></g></g></g><g fill="#737373" fill-opacity="1"><g transform="translate(611.60268, 708.699878)"><g><path d="M 3.6875 0 L 3.6875 -37.8125 L 10.234375 -37.8125 L 10.234375 0 Z M 3.6875 0 "/></g></g></g><g fill="#737373" fill-opacity="1"><g transform="translate(625.541102, 708.699878)"><g><path d="M 28.546875 -13.515625 C 28.546875 -10.648438 28.113281 -8.125 27.25 -5.9375 C 26.382812 -3.757812 25.144531 -2.09375 23.53125 -0.9375 C 21.925781 0.207031 20.007812 0.78125 17.78125 0.78125 C 14.832031 0.78125 12.316406 -0.140625 10.234375 -1.984375 L 10.234375 10.03125 L 3.6875 10.03125 L 3.6875 -26.640625 L 9.71875 -26.640625 L 9.71875 -24.015625 C 10.9375 -25.066406 12.21875 -25.890625 13.5625 -26.484375 C 14.914062 -27.085938 16.460938 -27.390625 18.203125 -27.390625 C 21.578125 -27.390625 24.144531 -26.203125 25.90625 -23.828125 C 27.664062 -21.460938 28.546875 -18.023438 28.546875 -13.515625 Z M 21.78125 -13.40625 C 21.78125 -16 21.332031 -18.019531 20.4375 -19.46875 C 19.539062 -20.914062 18.203125 -21.640625 16.421875 -21.640625 C 15.359375 -21.640625 14.265625 -21.390625 13.140625 -20.890625 C 12.015625 -20.390625 11.046875 -19.773438 10.234375 -19.046875 L 10.234375 -7.390625 C 10.929688 -6.765625 11.789062 -6.207031 12.8125 -5.71875 C 13.832031 -5.238281 14.882812 -5 15.96875 -5 C 17.757812 -5 19.175781 -5.765625 20.21875 -7.296875 C 21.257812 -8.828125 21.78125 -10.863281 21.78125 -13.40625 Z M 21.78125 -13.40625 "/></g></g></g><g fill="#737373" fill-opacity="1"><g transform="translate(656.439186, 708.699878)"><g/></g></g><g fill="#737373" fill-opacity="1"><g transform="translate(668.930434, 708.699878)"><g><path d="M 8.4375 -10.125 L 8.4375 -17.78125 C 11.1875 -18.925781 13.171875 -19.867188 14.390625 -20.609375 C 15.609375 -21.359375 16.515625 -22.144531 17.109375 -22.96875 C 17.703125 -23.800781 18 -24.757812 18 -25.84375 C 18 -28.4375 16.332031 -29.734375 13 -29.734375 C 11.476562 -29.734375 10.253906 -29.429688 9.328125 -28.828125 C 8.410156 -28.234375 7.570312 -27.304688 6.8125 -26.046875 L 0.890625 -29.578125 C 2.054688 -31.660156 3.613281 -33.226562 5.5625 -34.28125 C 7.507812 -35.34375 9.972656 -35.875 12.953125 -35.875 C 16.984375 -35.875 20.054688 -35.039062 22.171875 -33.375 C 24.296875 -31.707031 25.359375 -29.367188 25.359375 -26.359375 C 25.359375 -24.679688 25.015625 -23.191406 24.328125 -21.890625 C 23.648438 -20.585938 22.679688 -19.398438 21.421875 -18.328125 C 20.171875 -17.265625 18.144531 -16.046875 15.34375 -14.671875 L 15.34375 -10.125 Z M 16.125 -3.53125 C 16.125 -2.070312 15.789062 -1.054688 15.125 -0.484375 C 14.46875 0.078125 13.410156 0.359375 11.953125 0.359375 C 10.367188 0.359375 9.285156 0.0390625 8.703125 -0.59375 C 8.128906 -1.226562 7.84375 -2.207031 7.84375 -3.53125 C 7.84375 -4.914062 8.144531 -5.910156 8.75 -6.515625 C 9.363281 -7.128906 10.429688 -7.4375 11.953125 -7.4375 C 13.515625 -7.4375 14.597656 -7.128906 15.203125 -6.515625 C 15.816406 -5.910156 16.125 -4.914062 16.125 -3.53125 Z M 16.125 -3.53125 "/></g></g></g></svg>